<svg preserveAspectRatio="none" width="100%" height="100%" overflow="visible" style="display: block;" viewBox="0 0 24 24" fill="none" xmlns="http://www.w3.org/2000/svg">
<g id="Frame" clip-path="url(#clip0_0_582)">
<path id="Vector" d="M12 0.0556055C5.40906 0.0556055 0.0695508 5.39512 0.0695508 11.9861C0.0695508 18.577 5.40906 23.9166 12 23.9166C18.591 23.9166 23.9305 18.577 23.9305 11.9861C23.9305 5.39512 18.591 0.0556055 12 0.0556055ZM18.0904 12.6535L16.3106 14.4612C16.2828 14.489 16.2271 14.5446 16.1715 14.5724L10.7208 19.9954C10.635 20.0813 10.5331 20.1495 10.421 20.196C10.3089 20.2425 10.1886 20.2664 10.0672 20.2664C9.94583 20.2664 9.82561 20.2425 9.71347 20.196C9.60133 20.1495 9.49946 20.0813 9.4137 19.9954L7.60605 18.1877C7.52012 18.1019 7.45194 18.0001 7.40542 17.8879C7.3589 17.7758 7.33496 17.6556 7.33496 17.5342C7.33496 17.4128 7.3589 17.2925 7.40542 17.1804C7.45194 17.0683 7.52012 16.9664 7.60605 16.8806L12.5006 11.9861L7.63386 7.09153C7.54793 7.00577 7.47975 6.9039 7.43323 6.79176C7.38671 6.67962 7.36277 6.5594 7.36277 6.43799C7.36277 6.31659 7.38671 6.19637 7.43323 6.08423C7.47975 5.97208 7.54793 5.87022 7.63386 5.78446L9.44151 3.97681C9.80304 3.61528 10.387 3.61528 10.7486 3.97681L16.255 9.48318C16.2828 9.51099 16.3106 9.51099 16.3106 9.5388L18.1182 11.3465C18.2016 11.4299 18.2851 11.5411 18.3129 11.6524C18.4241 11.9861 18.3685 12.3754 18.0904 12.6535Z" fill="var(--fill-0, #333333)"/>
</g>
<defs>
<clipPath id="clip0_0_582">
<rect width="24" height="24" fill="white"/>
</clipPath>
</defs>
</svg>
