<svg preserveAspectRatio="none" width="100%" height="100%" overflow="visible" style="display: block;" viewBox="0 0 20.4545 20.4545" fill="none" xmlns="http://www.w3.org/2000/svg">
<g id="Icon">
<path id="Vector" d="M7.67007 14.4886H5.96552C4.83534 14.4886 3.75144 14.0396 2.95228 13.2405C2.15312 12.4413 1.70416 11.3574 1.70416 10.2272C1.70416 9.09703 2.15312 8.01314 2.95228 7.21398C3.75144 6.41482 4.83534 5.96585 5.96552 5.96585H7.67007" stroke="var(--stroke-0, #333333)" stroke-width="1.70455" stroke-linecap="round" stroke-linejoin="round"/>
<path id="Vector_2" d="M12.7842 5.96582H14.4887C15.6189 5.96582 16.7028 6.41478 17.502 7.21394C18.3011 8.01311 18.7501 9.097 18.7501 10.2272C18.7501 11.3574 18.3011 12.4413 17.502 13.2404C16.7028 14.0396 15.6189 14.4885 14.4887 14.4885H12.7842" stroke="var(--stroke-0, #333333)" stroke-width="1.70455" stroke-linecap="round" stroke-linejoin="round"/>
<path id="Vector_3" d="M6.81738 10.2271H13.6356" stroke="var(--stroke-0, #333333)" stroke-width="1.70455" stroke-linecap="round" stroke-linejoin="round"/>
</g>
</svg>
